<svg xmlns="http://www.w3.org/2000/svg" viewBox="0 0 1200 800"><defs><linearGradient id="g" x1="0" y1="0" x2="1" y2="1"><stop stop-color="#d8e9f2"/><stop offset="1" stop-color="#647b91"/></linearGradient></defs><rect width="1200" height="800" fill="url(#g)"/><path d="M130 800V180L520 90V800Z" fill="#263d52"/><path d="M520 800V90L1010 250V800Z" fill="#7894a8"/><g fill="#dff7ff"><path d="M190 250h90v70h-90zm130-30h90v70h-90zm-130 150h90v70h-90zm130-30h90v70h-90zm0 150h90v70h-90z"/><path d="M590 180h95v75h-95zm135 45h95v75h-95zm135 45h95v75h-95zm-270 90h95v75h-95zm135 45h95v75h-95zm135 45h95v75h-95z"/></g><text x="60" y="735" fill="white" font-family="Arial" font-size="48" font-weight="700">MODERN ARCHITECTURE</text></svg>